<?xml version="1.0" encoding="UTF-8"?>
<svg width="600px" height="691px" viewBox="0 0 600 691" version="1.1" xmlns="http://www.w3.org/2000/svg" xmlns:xlink="http://www.w3.org/1999/xlink">
    <!-- Generator: Sketch 48.2 (47327) - http://www.bohemiancoding.com/sketch -->
    <title>Untitled 3</title>
    <desc>Created with Sketch.</desc>
    <defs></defs>
    <g id="Page-1" stroke="none" stroke-width="1" fill="none" fill-rule="evenodd">
        <g id="bash-1" fill-rule="nonzero">
            <path d="M555.928058,143.741007 L340.359712,15.7553957 C314.738491,0.474615294 282.801077,0.474615294 257.179856,15.7553957 L41.5683453,143.741007 C15.6331601,159.386915 -0.157213685,187.524279 -1.53351724e-14,217.81295 L-1.53351724e-14,473.741007 C-0.141981116,504.014317 15.6464218,532.131774 41.5683453,547.769784 L257.136691,675.71223 C282.760515,690.983558 314.692722,690.983558 340.316547,675.71223 L555.884892,547.769784 C581.836641,532.134562 597.64452,503.995226 597.496403,473.697842 L597.496403,217.81295 C597.653617,187.524279 581.863243,159.386915 555.928058,143.741007 Z" id="Shape" fill="#FFFFFF"></path>
            <path d="M555.928058,143.741007 L340.359712,15.7553957 C314.738491,0.474615294 282.801077,0.474615294 257.179856,15.7553957 L41.5683453,143.741007 C15.6331601,159.386915 -0.157213685,187.524279 -1.53351724e-14,217.81295 L-1.53351724e-14,473.741007 C-0.141981116,504.014317 15.6464218,532.131774 41.5683453,547.769784 L257.136691,675.71223 C282.760515,690.983558 314.692722,690.983558 340.316547,675.71223 L555.884892,547.769784 C581.836641,532.134562 597.64452,503.995226 597.496403,473.697842 L597.496403,217.81295 C597.653617,187.524279 581.863243,159.386915 555.928058,143.741007 Z M264.690647,662.633094 L49.1223022,534.690647 C27.8195928,521.781964 14.8444232,498.649465 14.9352518,473.741007 L14.9352518,217.81295 C14.835837,192.902266 27.8132167,169.765826 49.1223022,156.863309 L264.690647,28.8776978 C285.670732,16.3612952 311.825671,16.3612952 332.805755,28.8776978 L548.201439,156.863309 C565.957799,167.618084 578.070603,185.653054 581.309353,206.158273 C574.143885,190.920863 558.043165,186.733813 539.266187,197.52518 L335.482014,323.741007 C310.057554,338.546763 291.323741,355.251799 291.280576,385.899281 L291.280576,637.208633 C291.280576,655.553957 298.661871,667.42446 310.057554,670.920863 C306.325764,671.604748 302.541984,671.965796 298.748201,672 C286.760719,671.991221 274.996627,668.755723 264.690647,662.633094 Z" id="Shape" fill="#2F3A3E"></path>
            <path d="M499.42446,498.47482 L445.726619,530.589928 C444.2885,531.167914 443.324706,532.537516 443.266187,534.086331 L443.266187,548.201439 C443.266187,549.928058 444.431655,550.618705 445.856115,549.798561 L500.374101,516.647482 C501.709211,515.646611 502.347889,513.965879 502.014388,512.330935 L502.014388,499.942446 C501.971223,498.345324 500.719424,497.654676 499.42446,498.47482 Z" id="Shape" fill="#3AB14A"></path>
            <path d="M385.122302,380.244604 C386.848921,379.381295 388.273381,380.244604 388.316547,382.705036 L388.489209,401.438849 C394.946603,398.505223 402.150698,397.631086 409.122302,398.935252 C410.460432,399.280576 411.021583,401.093525 410.503597,403.251799 L406.402878,419.697842 C406.092013,420.939013 405.45057,422.072727 404.546763,422.978417 C404.229342,423.291594 403.865311,423.553696 403.467626,423.755396 C402.979673,424.019309 402.416852,424.110577 401.870504,424.014388 C395.072583,422.509012 387.956474,423.651294 381.971223,427.208633 C373.219597,431.150989 367.498965,439.7571 367.251799,449.352518 C367.251799,457.985612 371.568345,460.359712 386.633094,460.618705 C406.532374,460.964029 415.165468,469.640288 415.381295,489.71223 C414.907515,510.663506 405.247198,530.347191 388.964029,543.539568 L389.309353,561.928058 C389.278665,564.211921 388.092353,566.324532 386.158273,567.539568 L375.280576,573.798561 C373.553957,574.661871 372.129496,573.798561 372.086331,571.381295 L372.086331,553.294964 C362.76259,557.179856 353.309353,558.086331 347.266187,555.669065 C346.143885,555.23741 345.625899,553.553957 346.100719,551.611511 L350.028777,534.992806 C350.327471,533.677633 351.002385,532.477785 351.971223,531.539568 C352.278493,531.245242 352.627591,530.997964 353.007194,530.805755 C353.569998,530.552764 354.214174,530.552764 354.776978,530.805755 C362.471956,532.892055 370.679643,531.852518 377.611511,527.913669 C387.614553,523.089336 394.115326,513.113724 394.489209,502.014388 C394.489209,492.690647 389.352518,488.805755 377.223022,488.719424 C361.553957,488.719424 347.007194,485.697842 346.705036,462.820144 C347.065581,442.833517 356.343974,424.055062 372,411.625899 L371.223022,392.805755 C371.216052,390.489013 372.408093,388.33354 374.374101,387.107914 L385.122302,380.244604 Z" id="Shape" fill="#FFFFFF"></path>
        </g>
    </g>
</svg>